ffmpeg started on 2025-05-05 at 10:52:11
Report written to "D:\Convert\FFMetrics\reports\ssim_report-6.txt"
Log level: 32
Command line:
ffmpeg -hide_banner -nostdin -i "G:\\\xc0\xed\xe8\xec\xe5\\\xce\xed\xe3\xee\xe8\xed\xe3\xe8\\!_35_\xcb\xe5\xf2\xee_2024\\JamClub-1\\\xdd\xf2\xee\xf2 \xec\xe8\xf0 \xf1\xeb\xe8\xf8\xea\xee\xec \xed\xe5\xf1\xee\xe2\xe5\xf0\xf8\xe5\xed\xe5\xed\\JamClub_Kono_Sekai_wa_Fukanzen_Sugiru_02_1080p_HEVC.mkv" -i "G:\\\xc0\xed\xe8\xec\xe5\\\xce\xed\xe3\xee\xe8\xed\xe3\xe8\\!_35_\xcb\xe5\xf2\xee_2024\\JamClub-1\\\xdd\xf2\xee\xf2 \xec\xe8\xf0 \xf1\xeb\xe8\xf8\xea\xee\xec \xed\xe5\xf1\xee\xe2\xe5\xf0\xf8\xe5\xed\xe5\xed\\JamClub_Kono_Sekai_wa_Fukanzen_Sugiru_02_1080p.mp4" -lavfi "[0:v]settb=AVTB,setpts=PTS-STARTPTS,format=pix_fmts=yuv420p10,fps=24000/1001,scale=1920:1080:flags=bicubic[main];[1:v]settb=AVTB,setpts=PTS-STARTPTS,format=pix_fmts=yuv420p,fps=24000/1001,scale=1920:1080:flags=bicubic[ref];[main][ref]ssim=eof_action=endall:stats_file='D\\:/Convert/FFMetrics/logs/ssim_logfile-6.txt'" -f null -
Input #0, matroska,webm, from 'G:\Аниме\Онгоинги\!_35_Лето_2024\JamClub-1\Этот мир слишком несовершенен\JamClub_Kono_Sekai_wa_Fukanzen_Sugiru_02_1080p_HEVC.mkv':
  Metadata:
    COMPATIBLE_BRANDS: isomiso2avc1mp41
    MAJOR_BRAND     : isom
    MINOR_VERSION   : 512
    ENCODER         : Lavf61.7.100
  Duration: 00:24:27.35, start: -0.001000, bitrate: 1310 kb/s
  Stream #0:0: Video: hevc (Main 10), yuv420p10le(tv, bt709, progressive), 1920x1080 [SAR 1:1 DAR 16:9], 23.98 fps, 23.98 tbr, 1k tbn (default)
      Metadata:
        HANDLER_NAME    : VideoHandler
        VENDOR_ID       : [0][0][0][0]
        ENCODER         : Lavc61.19.100 libx265
        BPS             : 1110969
        DURATION        : 00:24:27.215708333
        NUMBER_OF_FRAMES: 35178
        NUMBER_OF_BYTES : 203753826
        _STATISTICS_WRITING_APP: mkvpropedit v66.0.0 ('Josie') 64-bit
        _STATISTICS_WRITING_DATE_UTC: 2025-05-04 15:28:40
        _STATISTICS_TAGS: BPS DURATION NUMBER_OF_FRAMES NUMBER_OF_BYTES
  Stream #0:1(eng): Audio: aac (LC), 48000 Hz, stereo, fltp (default)
      Metadata:
        HANDLER_NAME    : SoundHandler
        VENDOR_ID       : [0][0][0][0]
        ENCODER         : Lavc61.19.100 aac
        BPS             : 195341
        DURATION        : 00:24:27.309000000
        NUMBER_OF_FRAMES: 68781
        NUMBER_OF_BYTES : 35828232
        _STATISTICS_WRITING_APP: mkvpropedit v66.0.0 ('Josie') 64-bit
        _STATISTICS_WRITING_DATE_UTC: 2025-05-04 15:28:40
        _STATISTICS_TAGS: BPS DURATION NUMBER_OF_FRAMES NUMBER_OF_BYTES
Input #1, mov,mp4,m4a,3gp,3g2,mj2, from 'G:\Аниме\Онгоинги\!_35_Лето_2024\JamClub-1\Этот мир слишком несовершенен\JamClub_Kono_Sekai_wa_Fukanzen_Sugiru_02_1080p.mp4':
  Metadata:
    major_brand     : isom
    minor_version   : 512
    compatible_brands: isomiso2avc1mp41
    encoder         : Lavf60.16.100
  Duration: 00:24:27.33, start: 0.000000, bitrate: 3700 kb/s
  Stream #1:0[0x1](und): Video: h264 (High) (avc1 / 0x31637661), yuv420p(progressive), 1920x1080 [SAR 1:1 DAR 16:9], 3502 kb/s, 23.98 fps, 23.98 tbr, 90k tbn (default)
      Metadata:
        handler_name    : VideoHandler
        vendor_id       : [0][0][0][0]
  Stream #1:1[0x2](eng): Audio: aac (LC) (mp4a / 0x6134706D), 48000 Hz, stereo, fltp, 191 kb/s (default)
      Metadata:
        handler_name    : SoundHandler
        vendor_id       : [0][0][0][0]
Stream mapping:
  Stream #0:0 (hevc) -> settb:default
  Stream #1:0 (h264) -> settb:default
  ssim:default -> Stream #0:0 (wrapped_avframe)
  Stream #0:1 -> #0:1 (aac (native) -> pcm_s16le (native))
Output #0, null, to 'pipe:':
  Metadata:
    COMPATIBLE_BRANDS: isomiso2avc1mp41
    MAJOR_BRAND     : isom
    MINOR_VERSION   : 512
    encoder         : Lavf61.7.100
  Stream #0:0: Video: wrapped_avframe, yuv420p10le(tv, bt709, progressive), 1920x1080 [SAR 1:1 DAR 16:9], q=2-31, 200 kb/s, 23.98 fps, 23.98 tbn
      Metadata:
        encoder         : Lavc61.19.100 wrapped_avframe
  Stream #0:1(eng): Audio: pcm_s16le, 48000 Hz, stereo, s16, 1536 kb/s (default)
      Metadata:
        HANDLER_NAME    : SoundHandler
        VENDOR_ID       : [0][0][0][0]
        _STATISTICS_TAGS: BPS DURATION NUMBER_OF_FRAMES NUMBER_OF_BYTES
        BPS             : 195341
        DURATION        : 00:24:27.309000000
        NUMBER_OF_FRAMES: 68781
        NUMBER_OF_BYTES : 35828232
        _STATISTICS_WRITING_APP: mkvpropedit v66.0.0 ('Josie') 64-bit
        _STATISTICS_WRITING_DATE_UTC: 2025-05-04 15:28:40
        encoder         : Lavc61.19.100 pcm_s16le
frame=  112 fps=0.0 q=-0.0 size=N/A time=00:00:04.67 bitrate=N/A speed=9.11x    frame=  269 fps=260 q=-0.0 size=N/A time=00:00:11.21 bitrate=N/A speed=10.8x    frame=  467 fps=299 q=-0.0 size=N/A time=00:00:19.47 bitrate=N/A speed=12.5x    frame=  645 fps=310 q=-0.0 size=N/A time=00:00:26.90 bitrate=N/A speed=12.9x    frame=  881 fps=340 q=-0.0 size=N/A time=00:00:36.74 bitrate=N/A speed=14.2x    frame= 1130 fps=363 q=-0.0 size=N/A time=00:00:47.13 bitrate=N/A speed=15.1x    frame= 1377 fps=380 q=-0.0 size=N/A time=00:00:57.43 bitrate=N/A speed=15.9x    frame= 1623 fps=392 q=-0.0 size=N/A time=00:01:07.69 bitrate=N/A speed=16.3x    frame= 1872 fps=403 q=-0.0 size=N/A time=00:01:18.07 bitrate=N/A speed=16.8x    frame= 2117 fps=409 q=-0.0 size=N/A time=00:01:28.29 bitrate=N/A speed=17.1x    frame= 2365 fps=416 q=-0.0 size=N/A time=00:01:38.64 bitrate=N/A speed=17.4x    frame= 2638 fps=425 q=-0.0 size=N/A time=00:01:50.02 bitrate=N/A speed=17.7x    frame= 2889 fps=431 q=-0.0 size=N/A time=00:02:00.49 bitrate=N/A speed=  18x    frame= 3060 fps=423 q=-0.0 size=N/A time=00:02:07.62 bitrate=N/A speed=17.6x    frame= 3196 fps=413 q=-0.0 size=N/A time=00:02:13.29 bitrate=N/A speed=17.2x    frame= 3338 fps=404 q=-0.0 size=N/A time=00:02:19.22 bitrate=N/A speed=16.8x    frame= 3551 fps=405 q=-0.0 size=N/A time=00:02:28.10 bitrate=N/A speed=16.9x    frame= 3796 fps=409 q=-0.0 size=N/A time=00:02:38.32 bitrate=N/A speed=  17x    frame= 3999 fps=407 q=-0.0 size=N/A time=00:02:46.79 bitrate=N/A speed=  17x    frame= 4199 fps=407 q=-0.0 size=N/A time=00:02:55.13 bitrate=N/A speed=  17x    frame= 4388 fps=405 q=-0.0 size=N/A time=00:03:03.01 bitrate=N/A speed=16.9x    frame= 4588 fps=404 q=-0.0 size=N/A time=00:03:11.35 bitrate=N/A speed=16.8x    frame= 4767 fps=402 q=-0.0 size=N/A time=00:03:18.82 bitrate=N/A speed=16.8x    frame= 4959 fps=400 q=-0.0 size=N/A time=00:03:26.83 bitrate=N/A speed=16.7x    frame= 5192 fps=403 q=-0.0 size=N/A time=00:03:36.54 bitrate=N/A speed=16.8x    frame= 5470 fps=408 q=-0.0 size=N/A time=00:03:48.14 bitrate=N/A speed=  17x    frame= 5722 fps=411 q=-0.0 size=N/A time=00:03:58.65 bitrate=N/A speed=17.1x    frame= 5993 fps=415 q=-0.0 size=N/A time=00:04:09.95 bitrate=N/A speed=17.3x    frame= 6247 fps=418 q=-0.0 size=N/A time=00:04:20.55 bitrate=N/A speed=17.4x    frame= 6492 fps=419 q=-0.0 size=N/A time=00:04:30.77 bitrate=N/A speed=17.5x    frame= 6735 fps=421 q=-0.0 size=N/A time=00:04:40.90 bitrate=N/A speed=17.6x    frame= 6973 fps=422 q=-0.0 size=N/A time=00:04:50.83 bitrate=N/A speed=17.6x    frame= 7234 fps=425 q=-0.0 size=N/A time=00:05:01.71 bitrate=N/A speed=17.7x    frame= 7496 fps=427 q=-0.0 size=N/A time=00:05:12.64 bitrate=N/A speed=17.8x    frame= 7743 fps=428 q=-0.0 size=N/A time=00:05:22.94 bitrate=N/A speed=17.9x    frame= 7990 fps=430 q=-0.0 size=N/A time=00:05:33.24 bitrate=N/A speed=17.9x    frame= 8245 fps=432 q=-0.0 size=N/A time=00:05:43.88 bitrate=N/A speed=  18x    frame= 8492 fps=433 q=-0.0 size=N/A time=00:05:54.18 bitrate=N/A speed=  18x    frame= 8710 fps=433 q=-0.0 size=N/A time=00:06:03.27 bitrate=N/A speed=  18x    frame= 8955 fps=434 q=-0.0 size=N/A time=00:06:13.49 bitrate=N/A speed=18.1x    frame= 9185 fps=434 q=-0.0 size=N/A time=00:06:23.09 bitrate=N/A speed=18.1x    frame= 9424 fps=435 q=-0.0 size=N/A time=00:06:33.05 bitrate=N/A speed=18.1x    frame= 9647 fps=435 q=-0.0 size=N/A time=00:06:42.36 bitrate=N/A speed=18.1x    frame= 9906 fps=436 q=-0.0 size=N/A time=00:06:53.16 bitrate=N/A speed=18.2x    frame=10120 fps=436 q=-0.0 size=N/A time=00:07:02.08 bitrate=N/A speed=18.2x    frame=10344 fps=436 q=-0.0 size=N/A time=00:07:11.43 bitrate=N/A speed=18.2x    frame=10602 fps=437 q=-0.0 size=N/A time=00:07:22.19 bitrate=N/A speed=18.2x    frame=10828 fps=437 q=-0.0 size=N/A time=00:07:31.61 bitrate=N/A speed=18.2x    frame=11002 fps=435 q=-0.0 size=N/A time=00:07:38.87 bitrate=N/A speed=18.1x    frame=11251 fps=436 q=-0.0 size=N/A time=00:07:49.26 bitrate=N/A speed=18.2x    frame=11532 fps=438 q=-0.0 size=N/A time=00:08:00.98 bitrate=N/A speed=18.3x    frame=11795 fps=439 q=-0.0 size=N/A time=00:08:11.94 bitrate=N/A speed=18.3x    frame=12076 fps=442 q=-0.0 size=N/A time=00:08:23.66 bitrate=N/A speed=18.4x    frame=12335 fps=443 q=-0.0 size=N/A time=00:08:34.47 bitrate=N/A speed=18.5x    frame=12561 fps=443 q=-0.0 size=N/A time=00:08:43.89 bitrate=N/A speed=18.5x    frame=12777 fps=442 q=-0.0 size=N/A time=00:08:52.90 bitrate=N/A speed=18.4x    frame=12986 fps=442 q=-0.0 size=N/A time=00:09:01.62 bitrate=N/A speed=18.4x    frame=13255 fps=443 q=-0.0 size=N/A time=00:09:12.84 bitrate=N/A speed=18.5x    frame=13527 fps=444 q=-0.0 size=N/A time=00:09:24.18 bitrate=N/A speed=18.5x    frame=13782 fps=445 q=-0.0 size=N/A time=00:09:34.82 bitrate=N/A speed=18.6x    frame=14052 fps=446 q=-0.0 size=N/A time=00:09:46.08 bitrate=N/A speed=18.6x    frame=14306 fps=447 q=-0.0 size=N/A time=00:09:56.67 bitrate=N/A speed=18.6x    frame=14580 fps=448 q=-0.0 size=N/A time=00:10:08.10 bitrate=N/A speed=18.7x    frame=14823 fps=449 q=-0.0 size=N/A time=00:10:18.24 bitrate=N/A speed=18.7x    frame=15097 fps=450 q=-0.0 size=N/A time=00:10:29.67 bitrate=N/A speed=18.8x    frame=15353 fps=451 q=-0.0 size=N/A time=00:10:40.34 bitrate=N/A speed=18.8x    frame=15619 fps=451 q=-0.0 size=N/A time=00:10:51.44 bitrate=N/A speed=18.8x    frame=15887 fps=453 q=-0.0 size=N/A time=00:11:02.62 bitrate=N/A speed=18.9x    frame=16158 fps=453 q=-0.0 size=N/A time=00:11:13.92 bitrate=N/A speed=18.9x    frame=16396 fps=454 q=-0.0 size=N/A time=00:11:23.89 bitrate=N/A speed=18.9x    frame=16648 fps=454 q=-0.0 size=N/A time=00:11:34.36 bitrate=N/A speed=18.9x    frame=16909 fps=455 q=-0.0 size=N/A time=00:11:45.24 bitrate=N/A speed=  19x    frame=17181 fps=456 q=-0.0 size=N/A time=00:11:56.59 bitrate=N/A speed=  19x    frame=17413 fps=456 q=-0.0 size=N/A time=00:12:06.26 bitrate=N/A speed=  19x    frame=17679 fps=457 q=-0.0 size=N/A time=00:12:17.36 bitrate=N/A speed=  19x    frame=17933 fps=457 q=-0.0 size=N/A time=00:12:27.95 bitrate=N/A speed=19.1x    frame=18168 fps=457 q=-0.0 size=N/A time=00:12:37.75 bitrate=N/A speed=19.1x    frame=18408 fps=457 q=-0.0 size=N/A time=00:12:47.76 bitrate=N/A speed=19.1x    frame=18690 fps=458 q=-0.0 size=N/A time=00:12:59.52 bitrate=N/A speed=19.1x    frame=18962 fps=459 q=-0.0 size=N/A time=00:13:10.87 bitrate=N/A speed=19.2x    frame=19239 fps=460 q=-0.0 size=N/A time=00:13:22.42 bitrate=N/A speed=19.2x    frame=19471 fps=460 q=-0.0 size=N/A time=00:13:32.10 bitrate=N/A speed=19.2x    frame=19728 fps=460 q=-0.0 size=N/A time=00:13:42.82 bitrate=N/A speed=19.2x    frame=19946 fps=460 q=-0.0 size=N/A time=00:13:51.91 bitrate=N/A speed=19.2x    frame=20191 fps=460 q=-0.0 size=N/A time=00:14:02.13 bitrate=N/A speed=19.2x    frame=20421 fps=460 q=-0.0 size=N/A time=00:14:11.72 bitrate=N/A speed=19.2x    frame=20687 fps=461 q=-0.0 size=N/A time=00:14:22.82 bitrate=N/A speed=19.2x    frame=20944 fps=461 q=-0.0 size=N/A time=00:14:33.53 bitrate=N/A speed=19.2x    frame=21187 fps=461 q=-0.0 size=N/A time=00:14:43.67 bitrate=N/A speed=19.2x    frame=21429 fps=461 q=-0.0 size=N/A time=00:14:53.76 bitrate=N/A speed=19.2x    frame=21679 fps=462 q=-0.0 size=N/A time=00:15:04.19 bitrate=N/A speed=19.2x    frame=21957 fps=462 q=-0.0 size=N/A time=00:15:15.78 bitrate=N/A speed=19.3x    frame=22210 fps=463 q=-0.0 size=N/A time=00:15:26.34 bitrate=N/A speed=19.3x    frame=22435 fps=462 q=-0.0 size=N/A time=00:15:35.72 bitrate=N/A speed=19.3x    frame=22686 fps=463 q=-0.0 size=N/A time=00:15:46.19 bitrate=N/A speed=19.3x    frame=22953 fps=463 q=-0.0 size=N/A time=00:15:57.33 bitrate=N/A speed=19.3x    frame=23194 fps=463 q=-0.0 size=N/A time=00:16:07.38 bitrate=N/A speed=19.3x    frame=23431 fps=463 q=-0.0 size=N/A time=00:16:17.26 bitrate=N/A speed=19.3x    frame=23703 fps=464 q=-0.0 size=N/A time=00:16:28.61 bitrate=N/A speed=19.3x    frame=23970 fps=465 q=-0.0 size=N/A time=00:16:39.74 bitrate=N/A speed=19.4x    frame=24223 fps=465 q=-0.0 size=N/A time=00:16:50.30 bitrate=N/A speed=19.4x    frame=24490 fps=465 q=-0.0 size=N/A time=00:17:01.43 bitrate=N/A speed=19.4x    frame=24726 fps=465 q=-0.0 size=N/A time=00:17:11.28 bitrate=N/A speed=19.4x    frame=24976 fps=465 q=-0.0 size=N/A time=00:17:21.70 bitrate=N/A speed=19.4x    frame=25244 fps=466 q=-0.0 size=N/A time=00:17:32.88 bitrate=N/A speed=19.4x    frame=25512 fps=466 q=-0.0 size=N/A time=00:17:44.06 bitrate=N/A speed=19.5x    frame=25797 fps=467 q=-0.0 size=N/A time=00:17:55.94 bitrate=N/A speed=19.5x    frame=26077 fps=468 q=-0.0 size=N/A time=00:18:07.62 bitrate=N/A speed=19.5x    frame=26341 fps=468 q=-0.0 size=N/A time=00:18:18.63 bitrate=N/A speed=19.5x    frame=26607 fps=469 q=-0.0 size=N/A time=00:18:29.73 bitrate=N/A speed=19.6x    frame=26848 fps=469 q=-0.0 size=N/A time=00:18:39.78 bitrate=N/A speed=19.5x    frame=27074 fps=468 q=-0.0 size=N/A time=00:18:49.21 bitrate=N/A speed=19.5x    frame=27328 fps=469 q=-0.0 size=N/A time=00:18:59.80 bitrate=N/A speed=19.5x    frame=27576 fps=469 q=-0.0 size=N/A time=00:19:10.14 bitrate=N/A speed=19.6x    frame=27774 fps=468 q=-0.0 size=N/A time=00:19:18.40 bitrate=N/A speed=19.5x    frame=28006 fps=468 q=-0.0 size=N/A time=00:19:28.08 bitrate=N/A speed=19.5x    frame=28253 fps=468 q=-0.0 size=N/A time=00:19:38.38 bitrate=N/A speed=19.5x    frame=28499 fps=468 q=-0.0 size=N/A time=00:19:48.64 bitrate=N/A speed=19.5x    frame=28740 fps=468 q=-0.0 size=N/A time=00:19:58.69 bitrate=N/A speed=19.5x    frame=28953 fps=468 q=-0.0 size=N/A time=00:20:07.58 bitrate=N/A speed=19.5x    frame=29189 fps=468 q=-0.0 size=N/A time=00:20:17.42 bitrate=N/A speed=19.5x    frame=29387 fps=467 q=-0.0 size=N/A time=00:20:25.68 bitrate=N/A speed=19.5x    frame=29646 fps=467 q=-0.0 size=N/A time=00:20:36.48 bitrate=N/A speed=19.5x    frame=29875 fps=467 q=-0.0 size=N/A time=00:20:46.03 bitrate=N/A speed=19.5x    frame=30083 fps=466 q=-0.0 size=N/A time=00:20:54.71 bitrate=N/A speed=19.5x    frame=30292 fps=466 q=-0.0 size=N/A time=00:21:03.42 bitrate=N/A speed=19.4x    frame=30551 fps=466 q=-0.0 size=N/A time=00:21:14.23 bitrate=N/A speed=19.4x    frame=30737 fps=465 q=-0.0 size=N/A time=00:21:21.98 bitrate=N/A speed=19.4x    frame=30969 fps=465 q=-0.0 size=N/A time=00:21:31.66 bitrate=N/A speed=19.4x    frame=31214 fps=465 q=-0.0 size=N/A time=00:21:41.88 bitrate=N/A speed=19.4x    frame=31429 fps=465 q=-0.0 size=N/A time=00:21:50.85 bitrate=N/A speed=19.4x    frame=31691 fps=465 q=-0.0 size=N/A time=00:22:01.77 bitrate=N/A speed=19.4x    frame=31955 fps=466 q=-0.0 size=N/A time=00:22:12.78 bitrate=N/A speed=19.4x    frame=32184 fps=465 q=-0.0 size=N/A time=00:22:22.34 bitrate=N/A speed=19.4x    frame=32449 fps=466 q=-0.0 size=N/A time=00:22:33.39 bitrate=N/A speed=19.4x    frame=32732 fps=466 q=-0.0 size=N/A time=00:22:45.19 bitrate=N/A speed=19.5x    frame=32991 fps=467 q=-0.0 size=N/A time=00:22:55.99 bitrate=N/A speed=19.5x    frame=33206 fps=466 q=-0.0 size=N/A time=00:23:04.96 bitrate=N/A speed=19.5x    frame=33408 fps=466 q=-0.0 size=N/A time=00:23:13.39 bitrate=N/A speed=19.4x    frame=33634 fps=466 q=-0.0 size=N/A time=00:23:22.81 bitrate=N/A speed=19.4x    frame=33848 fps=465 q=-0.0 size=N/A time=00:23:31.74 bitrate=N/A speed=19.4x    frame=34012 fps=464 q=-0.0 size=N/A time=00:23:38.58 bitrate=N/A speed=19.4x    frame=34206 fps=464 q=-0.0 size=N/A time=00:23:46.67 bitrate=N/A speed=19.3x    frame=34402 fps=463 q=-0.0 size=N/A time=00:23:54.85 bitrate=N/A speed=19.3x    frame=34591 fps=462 q=-0.0 size=N/A time=00:24:02.73 bitrate=N/A speed=19.3x    frame=34809 fps=462 q=-0.0 size=N/A time=00:24:11.82 bitrate=N/A speed=19.3x    frame=35040 fps=462 q=-0.0 size=N/A time=00:24:21.46 bitrate=N/A speed=19.3x    [Parsed_ssim_10 @ 000001bb9c761f80] SSIM Y:0.993846 (22.108431) U:0.993457 (21.842400) V:0.994235 (22.391756) All:0.993846 (22.108420)
[out#0/null @ 000001bb90686e00] video:15116KiB audio:275124KiB subtitle:0KiB other streams:0KiB global headers:0KiB muxing overhead: unknown
frame=35178 fps=462 q=-0.0 Lsize=N/A time=00:24:27.21 bitrate=N/A speed=19.3x    
